<svg xmlns="http://www.w3.org/2000/svg" width="3260" height="1812" fill="none">
    <path fill="#A697CD" stroke="#0D0E0E" stroke-width="16"
        d="M1632 1713c898-55 1625-460 1624-906S2526 44 1628 99 3 559 4 1005c2 446 730 763 1628 708Z" />
    <path fill="#0D0E0E" stroke="#0D0E0E" stroke-linecap="round" stroke-linejoin="round" stroke-width="16"
        d="m2565 612-186-15c9 114-112 73-116 17-6-64-1-33 16-109l283 54c21-103 3-332-225-297-126 28-220 99-258 242-3 118 23 231 243 313 95 29 239-21 243-205Z" />
    <path fill="#0D0E0E" stroke="#0D0E0E" stroke-linecap="round" stroke-linejoin="round" stroke-width="16"
        d="m1558 762 115-464 165-21 1 182 95-186 209-12-25 501s-200 31-198 8 36-272 36-272l-68 158-89 7-56-181-24 345-161-65Z" />
    <path fill="#0D0E0E" stroke="#0D0E0E" stroke-linecap="round" stroke-linejoin="round" stroke-width="16"
        d="M1389 755c104 8 195-84 203-205 8-122-69-226-173-234s-194 84-203 205c-8 122 70 226 173 234Z" />
    <path fill="#0D0E0E" stroke="#0D0E0E" stroke-linecap="round" stroke-linejoin="round" stroke-width="16"
        d="M774 816c4-145-22-364-36-554 82-47 151-61 232-96l-12 332 100-11 12-280 212-10-22 583-176 23c2-56 21-107-1-205l-123 20c-8 64-1 68 3 195l-189 3Z" />
    <path fill="#0D0E0E" stroke="#0D0E0E" stroke-linecap="round" stroke-linejoin="round" stroke-width="16"
        d="M2564 1328c65-250 51-264 77-397l123-17-38 107c467-338 245 196 349 365l-138 55c-108-135-13-500-182-319l6 325c-136-14-180-67-197-119Z" />
    <path fill="#0D0E0E" stroke="#0D0E0E" stroke-linecap="round" stroke-linejoin="round" stroke-width="16"
        d="m2050 1371-13-496 147-34-13 336 78-203h97l53 286 22-363h168v486l-215 74-72-293-71 259-181-52ZM786 1424c15-149-4-330 35-493 389-174 557 164 237 268 120 15 123 136 271 175l-100 157c-174-12-148-217-263-287 1 60-3 171 26 251-68-21-136-45-206-71Z" />
    <path fill="#0D0E0E" stroke="#0D0E0E" stroke-linecap="round" stroke-linejoin="round" stroke-width="16"
        d="m796 1016-257 57c-235-469-352 546-10 253 21-20 16-57 2-94l-259 84-13-202 523-44 82 392s-263 52-254 30c8-22 8-148 8-148-543 593-758-680-62-614 61 6 203 49 237 263l3 23Z" />
    <path fill="#FFAAD9" stroke="#0D0E0E" stroke-linecap="round" stroke-linejoin="round" stroke-width="10"
        d="M840 701c4-125-23-314-37-478 79-40 148-53 226-82l-10 287 97-9 11-243 207-7-18 503-172 19c2-48 20-93-3-177l-120 17c-7 55 0 58 4 168l-185 2Z" />
    <path fill="#FFAAD9" stroke="#0D0E0E" stroke-linecap="round" stroke-linejoin="round" stroke-width="16"
        d="M1483 660c102 7 190-72 197-176 8-105-68-196-170-203-101-7-190 72-197 176-8 105 69 196 170 203Z" />
    <path fill="#FFAAD9" stroke="#0D0E0E" stroke-linecap="round" stroke-linejoin="round" stroke-width="16"
        d="m1616 669 111-400 161-17 2 157 91-160 205-10-22 433s-195 26-193 6c1-20 33-235 33-235l-65 136-87 6-56-156-21 297-159-57ZM2658 572l-172-14c8 111-104 73-108 18-4-62 0-33 16-106l262 50c20-101 5-324-206-288a305 305 0 0 0-240 238c-4 115 19 226 222 303 87 28 221-22 226-201Z" />
    <path fill="#0D0E0E" stroke="#0D0E0E" stroke-linecap="round" stroke-linejoin="round" stroke-width="16"
        d="M2480 553c0 8-2 15-4 22-3 7-6 14-10 19-5 5-9 9-15 12-5 3-11 4-16 4-6-1-11-2-16-6-5-3-10-7-13-13-4-6-7-12-9-20a79 79 0 0 1 13-63c4-5 9-10 14-12 5-3 11-4 16-4 6 0 11 2 16 5s10 8 14 14l8 19c2 7 2 15 2 23Zm-901-54c0 11-3 23-7 33-4 11-10 20-17 28-8 8-16 14-25 18a64 64 0 0 1-57-3c-9-5-17-12-23-20-7-9-12-19-15-29a103 103 0 0 1 21-96c14-15 34-24 53-23 20 1 38 11 51 28 14 18 20 40 19 64Zm982-62c-35-83-88-105-170-28l170 28Z" />
    <path fill="#0D0E0E" stroke="#fff" stroke-width="16"
        d="M1704 1529c303 0 548-196 548-438 0-241-245-437-548-437-302 0-547 196-547 437 0 242 245 438 547 438Z" />
    <path fill="#FEFFE5"
        d="M1977 808c0 6-3 11-8 15a40 40 0 0 1-32 5l-10-5c-2-2-5-4-6-7l-2-8 2-8 6-6 10-5a40 40 0 0 1 32 5c5 4 8 9 8 14Zm-62-51c0 9-7 17-19 23s-29 9-46 9l-25-2-21-7c-6-3-10-7-14-11-3-3-4-8-4-12s1-8 4-12c4-4 8-7 14-10l21-7a126 126 0 0 1 71 7c12 6 19 14 19 22Zm-547 254c0-25 6-50 17-73 12-23 28-44 50-62 21-18 46-32 74-42a268 268 0 0 1 249 42c22 18 38 39 50 62a165 165 0 0 1 0 147c-12 23-28 44-50 62-21 18-46 32-74 42a268 268 0 0 1-249-42c-22-18-38-39-50-62-11-23-17-48-17-74Z" />
    <path stroke="#0D0E0E" stroke-width="20"
        d="M1660 1027c0 14-9 28-25 38s-38 15-60 15c-11 0-23-1-33-4-10-2-20-6-28-11s-14-11-18-18c-5-6-7-13-7-20s2-14 7-21c4-6 10-12 18-17s18-9 28-12 22-4 33-4c22 0 44 6 60 16s25 23 25 38Zm-21-98c0 10-6 20-17 27-11 8-26 12-42 12-7 0-15-1-22-3s-14-5-19-9c-6-3-10-8-13-12-3-5-4-10-4-15s1-11 4-15c3-5 7-9 13-13 5-4 12-6 19-8s15-3 22-3c16 0 31 4 42 11s17 17 17 28Z" />
    <path fill="#FFAAD9"
        d="M870 1309c14-146-5-325 34-484 377-171 540 160 230 263 116 15 120 134 263 172l-97 154c-169-12-144-213-256-282 1 59-3 168 26 247-66-21-132-44-200-70Z" />
    <path fill="#FFAAD9"
        d="m2115 1271-12-487 142-33-12 329 76-199h94l51 281 22-357h163v478l-209 72-69-287-70 254-176-51ZM873 909l-250 56c-228-460-342 537-10 249 21-19 16-56 2-93l-251 83-13-198 508-44 79 386s-254 51-247 29c8-21 8-145 8-145-527 582-735-668-60-603 60 6 198 48 231 258l3 22Zm1752 298c63-245 49-259 74-389l120-17-38 105c454-332 238 193 340 358l-134 54c-106-132-13-490-177-312l6 318c-132-14-175-66-191-117Z" />
    <path stroke="#0D0E0E" stroke-linecap="round" stroke-linejoin="round" stroke-width="16"
        d="M870 1309c14-146-5-325 34-484 377-171 540 160 230 263 116 15 120 134 263 172l-97 154c-169-12-144-213-256-282 1 59-3 168 26 247-66-21-132-44-200-70Z" />
    <path stroke="#0D0E0E" stroke-linecap="round" stroke-linejoin="round" stroke-width="16"
        d="m2115 1271-12-487 142-33-12 329 76-199h94l51 281 22-357h163v478l-209 72-69-287-70 254-176-51ZM873 909l-250 56c-228-460-342 537-10 249 21-19 16-56 2-93l-251 83-13-198 508-44 79 386s-254 51-247 29c8-21 8-145 8-145-527 582-735-668-60-603 60 6 198 48 231 258l3 22Zm1752 298c63-245 49-259 74-389l120-17-38 105c454-332 238 193 340 358l-134 54c-106-132-13-490-177-312l6 318c-132-14-175-66-191-117Z" />
    <path fill="#FFAAD9"
        d="m475 1002-114 7 11 188 110-36M882 1103l2-54 70 285-29-9-43-222ZM2633 1195l13-51 1 98-6-8-7-14-1-25Z" />
    <path fill="#0D0E0E" stroke="#0D0E0E" stroke-linecap="round" stroke-linejoin="round" stroke-width="16"
        d="M1044 1014c147-14 87-163 7-139l-7 139Z" />
    <path fill="#FEFFE5" stroke="#0D0E0E" stroke-linecap="round" stroke-linejoin="round" stroke-width="16"
        d="M3051 834c74 4 70-17 86-175 4 158-9 183 68 184-49 0-72-3-84 147-3-116 7-149-70-156ZM1424 296c102 6 95-21 119-218 4 198-13 228 93 229-67 0-100-4-116 183-4-145 10-185-96-194Zm-282 1072c102 6 95-21 118-218 5 198-12 228 94 229-67 0-100-3-116 183-4-144 10-185-96-194ZM242 734c102 6 96-21 119-218 4 198-13 228 93 229-67 1-100-3-115 184-5-145 9-186-97-195Zm2213 29c190 9 177-31 219-326 10 296-22 341 176 344-126 0-186-7-214 273-9-216 17-277-181-291Zm-480-167c102 6 95-21 118-218 5 198-13 228 94 229-68 0-100-4-116 183-4-144 10-185-96-194ZM474 573c162 9 152-33 188-342 8 310-20 357 149 359-107 0-159-6-183 287-7-226 15-291-154-304Z" />
</svg>