<svg xmlns="http://www.w3.org/2000/svg" width="210mm" height="297mm" viewBox="0 0 210 297">
  <path  d="M110.77722 45.814258c-18.824709.000001-34.033067 12.185803-34.033067 27.150797-.000003 14.964995 15.208356 27.150285 34.033067 27.150285 18.82471 0 34.03513-12.18529 34.03513-27.150285 0-14.964994-15.21042-27.150796-34.03513-27.150797zm-6.74636 10.149251c7.91056-.000147 14.32339 5.371527 14.32316 11.997717-.00011 6.625989-6.41284 11.997348-14.32316 11.997201-7.910115-.000092-14.322531-5.371381-14.322641-11.997201-.000231-6.626021 6.412285-11.997625 14.322641-11.997717z" style="display:inline" transform="matrix(2.89242 0 0 3.17857 -218.48713 -97.981167)"/>
  <path d="M122.81473 54.311414c-2.23246.000046-4.04229.884713-4.04265 1.976107-.00022 1.091597 1.80977 1.976579 4.04265 1.976625 2.23307.000092 4.04337-.884931 4.04316-1.976625-.00037-1.091491-1.8105-1.976199-4.04316-1.976107zm6.12831 3.868499c-1.01072.000014-1.83002.58377-1.82987 1.303796.00025.719824.81943 1.303265 1.82987 1.30328 1.01043-.000019 1.82961-.583459 1.82986-1.30328.00015-.720023-.81915-1.303778-1.82986-1.303796zm-24.91218-2.216404a14.322839 11.997366 0 0 0-14.322641 11.997717 14.322839 11.997366 0 0 0 14.322641 11.997201 14.322839 11.997366 0 0 0 14.32316-11.997201 14.322839 11.997366 0 0 0-14.32316-11.997717Zm6.74636-10.623641c-19.030024 0-34.507457 12.338717-34.507457 27.625187-.000003 15.286472 15.477431 27.624675 34.507457 27.624675 19.03003 0 34.51004-12.338203 34.51004-27.624675 0-15.28647-15.48001-27.625186-34.51004-27.625187zm0 .47439c18.82473.000001 34.03513 12.185788 34.03513 27.150797 0 14.96501-15.2104 27.150285-34.03513 27.150285-18.82473 0-34.03307-12.185275-34.033067-27.150285 0-14.965009 15.208339-27.150796 34.033067-27.150797z" style="display:inline;fill:#FEFFE5;stroke-width:1.53848" transform="matrix(2.89242 0 0 3.17857 -218.48713 -97.981167)"/>
  <path d="M103.00973 60.338436a3.659814 2.439002 0 0 0-3.659722 2.439127 3.659814 2.439002 0 0 0 3.659722 2.439128 3.659814 2.439002 0 0 0 3.65973-2.439128 3.659814 2.439002 0 0 0-3.65973-2.439127zm-.34054 5.214669a5.362053 3.36414 0 0 0-5.361951 3.364135 5.362053 3.36414 0 0 0 5.361951 3.364136 5.362053 3.36414 0 0 0 5.36194-3.364136 5.362053 3.36414 0 0 0-5.36194-3.364135z" style="display:inline;fill:none;stroke:#000;stroke-width:2.37672" transform="matrix(2.89242 0 0 3.17857 -218.48713 -97.981167)"/>
</svg>
